HIERARCHY
ROOT Hips
{
	OFFSET 0.000000 0.000000 0.000000 
	CHANNELS 6 Xposition Yposition Zposition Yrotation Zrotation Xrotation 
	JOINT Lumbar
	{
		OFFSET 0.000000 0.000000 0.000000 
		CHANNELS 3 Zrotation Xrotation Yrotation
		JOINT Neck
		{
			OFFSET 0.000000 0.445665 0.000000 
			CHANNELS 3 Zrotation Xrotation Yrotation
			End Site
			{
				OFFSET 0.000000 0.227535 0.000000 
			}
		}
		JOINT RightShoulder
		{
			OFFSET 0.019635 0.377685 0.194865 
			CHANNELS 3 Zrotation Xrotation Yrotation
			JOINT RightElbow
			{
				OFFSET 0.000000 -0.243375 0.000000 
				CHANNELS 2 Zrotation Yrotation
				JOINT RightWrist
				{
					OFFSET 0.000000 -0.264825 0.000000 
					CHANNELS 2 Zrotation Xrotation
					End Site
					{
						OFFSET 0.006600 -0.176220 0.000990 
					}
				}
			}
		}
		JOINT LeftShoulder
		{
			OFFSET 0.019635 0.377685 -0.194865 
			CHANNELS 3 Zrotation Xrotation Yrotation
			JOINT LeftElbow
			{
				OFFSET 0.000000 -0.243375 0.000000 
				CHANNELS 2 Zrotation Yrotation
				JOINT LeftWrist
				{
					OFFSET 0.000000 -0.264825 0.000000 
					CHANNELS 2 Zrotation Xrotation
					End Site
					{
						OFFSET 0.006600 -0.176220 -0.000990 
					}
				}
			}
		}
	}
	JOINT RightHip
	{
		OFFSET 0.052140 -0.069960 0.075570 
		CHANNELS 3 Zrotation Xrotation Yrotation
		JOINT RightKnee
		{
			OFFSET 0.000000 -0.402270 0.000000 
			CHANNELS 1 Zrotation
			JOINT RightAnkle
			{
				OFFSET 0.000000 -0.404085 0.000000 
				CHANNELS 3 Zrotation Xrotation Yrotation
				End Site
				{
					OFFSET 0.204105 -0.089430 0.008415 
				}
			}
		}
	}
	JOINT LeftHip
	{
		OFFSET 0.052140 -0.069960 -0.075570 
		CHANNELS 3 Zrotation Xrotation Yrotation
		JOINT LeftKnee
		{
			OFFSET 0.000000 -0.402270 0.000000 
			CHANNELS 1 Zrotation
			JOINT LeftAnkle
			{
				OFFSET 0.000000 -0.404085 0.000000 
				CHANNELS 3 Zrotation Xrotation Yrotation
				End Site
				{
					OFFSET 0.204105 -0.089430 -0.008415 
				}
			}
		}
	}
}
MOTION
Frames: 22
Frame Time: 0.02
-0.00201 0.00095 0.0039 153.2812 -31.49177 -0.36989 41.45216 3.05642 -3.48966 -12.33748 -6.49709 -0.46098 -26.58167 -11.37499 -5.88628 24.95035 93.30052 8.85928 0.1304 -39.59433 15.74227 1.15455 27.47427 -103.60625 18.80608 -0.42102 32.69037 1.61771 -12.67419 -19.45568 -7.36236 -3.90847 -2.72872 38.67846 9.19707 5.52607 -26.69143 -10.36251 5.25834 3.64617
-0.00263 0.00069 0.00394 153.32407 -31.41654 -0.345 41.55457 2.96597 -3.59 -12.43186 -6.20137 -0.46179 -26.49062 -11.58856 -4.94545 26.62717 92.63507 8.58703 -0.03539 -39.03659 15.74854 1.04852 29.47543 -102.42957 18.10104 -0.26935 32.61943 1.62945 -12.48815 -19.55015 -7.37064 -3.94804 -2.75083 38.55971 9.12948 5.36339 -26.72496 -10.32052 5.25445 3.64475
-0.00325 0.00043 0.00399 153.36683 -31.34144 -0.32021 41.65719 2.87568 -3.69059 -12.52621 -5.90599 -0.46259 -26.39747 -11.80267 -4.00466 28.30401 91.97117 8.31539 -0.20084 -38.47811 15.75506 0.94128 31.4757 -101.25532 17.39744 -0.11795 32.54852 1.64123 -12.30291 -19.64442 -7.37885 -3.98746 -2.77286 38.44117 9.06225 5.20135 -26.75849 -10.2786 5.25056 3.64332
-0.00386 0.00017 0.00404 153.40959 -31.26642 -0.2954 41.75937 2.78548 -3.79072 -12.62037 -5.61108 -0.4634 -26.30647 -12.0158 -3.06628 29.9765 91.30769 8.04396 -0.36614 -37.92185 15.76135 0.83536 33.47151 -100.08204 16.69448 0.03329 32.47778 1.65295 -12.11748 -19.73861 -7.3871 -4.02691 -2.7949 38.32275 8.99488 5.03919 -26.79191 -10.23673 5.24669 3.64191
-0.00448 -9e-05 0.00408 153.45241 -31.1913 -0.27048 41.86113 2.69519 -3.89035 -12.71439 -5.31608 -0.46421 -26.21804 -12.22788 -2.12889 31.64704 90.64287 7.77197 -0.53173 -37.36679 15.76731 0.7311 35.46634 -98.90688 15.99029 0.18473 32.40709 1.6646 -11.93117 -19.83297 -7.39543 -4.06649 -2.81702 38.20422 8.92711 4.87635 -26.82537 -10.19482 5.24282 3.64052
-0.0051 -0.00035 0.00412 153.49503 -31.11628 -0.24594 41.96554 2.60488 -3.99291 -12.80937 -5.01995 -0.46501 -26.11474 -12.44616 -1.18102 33.33702 89.98095 7.50107 -0.69685 -36.80093 15.775 0.61754 37.47792 -97.73467 15.28795 0.33604 32.33571 1.67666 -11.74816 -19.92704 -7.40341 -4.10558 -2.83886 38.08569 8.86103 4.71603 -26.85907 -10.15288 5.23888 3.639
-0.00571 -0.00061 0.00418 153.5381 -31.04112 -0.22069 42.06453 2.51467 -4.08959 -12.90254 -4.72632 -0.46582 -26.04259 -12.65196 -0.25539 34.98594 89.3139 7.22835 -0.86271 -36.2586 15.77918 0.52314 39.45331 -96.55764 14.58284 0.48741 32.2658 1.68788 -11.55875 -20.0216 -7.41209 -4.14562 -2.86124 37.9672 8.79159 4.55078 -26.89205 -10.11102 5.2351 3.63774
-0.00633 -0.00087 0.00422 153.58057 -30.96611 -0.19605 42.16847 2.42447 -4.19145 -12.99696 -4.43056 -0.46662 -25.93968 -12.86884 0.69096 36.67287 88.65161 6.9572 -1.02796 -35.69242 15.78665 0.41049 41.46258 -95.38538 13.87994 0.63879 32.19453 1.69987 -11.37519 -20.11569 -7.42011 -4.18478 -2.88311 37.84883 8.72531 4.39015 -26.92608 -10.06913 5.23116 3.63624
-0.00696 -0.00113 0.00423 153.62308 -30.89116 -0.17234 42.2788 2.33379 -4.30076 -13.09464 -4.13126 -0.46743 -25.80676 -13.10127 1.66272 38.40731 87.9947 6.68825 -1.19229 -35.10494 15.79798 0.27751 43.51305 -94.21691 13.18071 0.79004 32.12156 1.71284 -11.19893 -20.20932 -7.42735 -4.22291 -2.9044 37.72989 8.66264 4.23481 -26.95989 -10.027 5.22705 3.63447
-0.00753 -0.00138 0.0044 153.66767 -30.8155 -0.14382 42.3534 2.24441 -4.37058 -13.17881 -3.84952 -0.46823 -25.86927 -13.25031 2.48862 39.87169 87.30549 6.40746 -1.36136 -34.66356 15.7866 0.26739 45.32596 -93.02046 12.46324 0.94164 32.05825 1.7203 -10.98114 -20.30592 -7.43917 -4.2671 -2.92918 37.61206 8.57845 4.04798 -26.99045 -9.98566 5.224 3.63431
-0.00822 -0.00165 0.00423 153.70639 -30.74156 -0.12512 42.50267 2.15326 -4.52147 -13.28806 -3.53261 -0.46905 -25.5052 -13.57122 3.62165 41.90304 86.68536 6.15118 -1.52074 -33.89921 15.82345 -0.0055 47.63967 -91.88722 11.78253 1.09272 31.97465 1.73931 -10.85065 -20.39605 -7.4413 -4.29842 -2.94651 37.49332 8.54012 3.92824 -27.03075 -9.94305 5.21865 3.63073
-0.00925 -0.00191 0.00312 153.74054 -30.66984 -0.13606 42.86402 2.04952 -4.91467 -13.49564 -3.10267 -0.46994 -24.074 -14.40148 5.61137 45.52968 86.25164 5.96208 -1.65201 -32.3569 15.98998 -0.97866 51.34241 -90.90408 11.20962 1.24249 31.83289 1.79081 -10.96501 -20.46949 -7.4167 -4.29463 -2.94375 37.36019 8.62533 3.98904 -27.07575 -9.89398 5.20754 3.6177
-0.01038 -0.00218 0.00166 153.76637 -30.5998 -0.15629 43.29847 1.9457 -5.38481 -13.72321 -2.64051 -0.47087 -22.19467 -15.39671 7.90639 49.71726 85.88994 5.79458 -1.77454 -30.46831 16.20454 -2.21992 55.542 -89.99561 10.66702 1.39304 31.6704 1.85362 -11.16627 -20.53588 -7.38238 -4.27777 -2.93341 37.22829 8.75704 4.11779 -27.13561 -9.84453 5.19401 3.60126
-0.01145 -0.00246 0.00034 153.78884 -30.53129 -0.17061 43.69551 1.84663 -5.80781 -13.92202 -2.20387 -0.47177 -20.4536 -16.29267 10.05334 53.62387 85.49464 5.62114 -1.90115 -28.66983 16.39998 -3.35161 59.5089 -89.05943 10.11275 1.54152 31.52009 1.91098 -11.32402 -20.60529 -7.35265 -4.2669 -2.92638 37.10365 8.86896 4.21794 -27.2018 -9.79675 5.18123 3.58638
-0.01261 -0.0027 -0.00092 153.84262 -30.45525 -0.19234 44.11269 1.72657 -6.28562 -14.2028 -1.72115 -0.47266 -18.99009 -17.29422 12.24254 57.6462 85.09455 5.44384 -2.02434 -27.16231 16.58775 -4.43054 63.51968 -88.06881 9.57143 1.69188 31.36148 1.97038 -11.49796 -20.67698 -7.32226 -4.25623 -2.92009 36.94621 8.97524 4.30904 -27.20874 -9.74126 5.16992 3.57135
-0.0136 -0.00301 -0.00238 153.82775 -30.39261 -0.20048 44.50235 1.65156 -6.66343 -14.31903 -1.32691 -0.47366 -16.83926 -18.11158 14.41327 61.55465 84.7323 5.26409 -2.15627 -24.95704 16.7983 -5.68481 67.53955 -87.24479 8.98304 1.84521 31.21098 2.02734 -11.65996 -20.74035 -7.29081 -4.24151 -2.9102 36.85712 9.1044 4.43455 -27.34767 -9.70349 5.15496 3.55594
-0.01411 -0.0035 -0.00431 153.63835 -30.3901 -0.17137 44.82296 1.68903 -6.78166 -13.96315 -1.18446 -0.47422 -12.92708 -18.40696 16.48016 65.05562 84.37191 5.20511 -2.28268 -20.9956 17.09901 -7.33799 71.60841 -86.54936 8.49776 1.94685 31.12548 2.08191 -11.75616 -20.7993 -7.26011 -4.22362 -2.89458 36.96017 9.28353 4.6425 -27.80521 -9.69927 5.13062 3.53935
-0.01446 -0.00405 -0.00641 153.378 -30.39706 -0.12751 45.109 1.77379 -6.7906 -13.4432 -1.13261 -0.475 -8.3343 -18.50547 18.51285 68.41182 84.06814 5.11781 -2.42384 -16.33012 17.41373 -9.16017 75.64157 -86.07097 7.92431 2.06088 31.0425 2.13213 -11.83861 -20.84728 -7.22851 -4.20135 -2.87524 37.13231 9.48398 4.88171 -28.40352 -9.71558 5.10265 3.52266
-0.01488 -0.00457 -0.00843 153.14129 -30.38369 -0.08902 45.39414 1.84505 -6.82555 -13.00697 -1.03915 -0.47616 -4.0349 -18.67725 20.54789 71.8081 83.78762 4.95668 -2.57949 -11.92811 17.69639 -10.92005 79.59598 -85.70681 7.22693 2.21057 30.93293 2.1799 -11.93599 -20.88887 -7.19637 -4.17779 -2.85599 37.26908 9.67637 5.10424 -28.96436 -9.73286 5.07625 3.50668
-0.01529 -0.00513 -0.01051 152.93954 -30.43624 -0.05749 45.75065 1.88368 -6.96047 -12.53345 -0.94502 -0.47533 0.21515 -18.92611 22.65293 75.34222 83.28161 5.16349 -2.64659 -7.74378 18.08902 -12.63543 83.97022 -84.47324 7.20174 2.19302 30.92739 2.24747 -12.00327 -20.97702 -7.16758 -4.16711 -2.84296 37.41842 9.86524 5.34056 -29.41151 -9.70742 5.05011 3.48785
-0.01569 -0.0056 -0.01248 152.6496 -30.35598 -0.00655 45.95101 2.00012 -6.86347 -12.09753 -0.87598 -0.47862 4.72098 -18.96185 24.5955 78.53537 83.28438 4.59548 -2.9002 -2.9543 18.25553 -14.47091 87.45316 -85.06766 5.78181 2.51788 30.70941 2.27171 -12.12446 -20.96721 -7.13214 -4.12937 -2.81654 37.56327 10.06373 5.55348 -30.13157 -9.77483 5.0226 3.4749
-0.01601 -0.00579 -0.01407 152.12171 -29.88758 0.08325 45.71393 2.33159 -6.12442 -11.81305 -0.83884 -0.49406 9.78546 -18.48857 26.1342 80.92345 84.44032 1.91099 -3.6777 3.42389 17.79287 -16.6745 88.49633 -90.9402 0.30553 3.86122 29.87538 2.18533 -12.43451 -20.67639 -7.07492 -4.01249 -2.75098 37.63338 10.30197 5.7043 -31.54445 -10.10182 4.99185 3.4787
